<?xml version="1.0" encoding="utf-8"?>
<!-- Generator: Adobe Illustrator 26.0.1, SVG Export Plug-In . SVG Version: 6.00 Build 0)  -->
<svg version="1.1" id="Layer_1" xmlns="http://www.w3.org/2000/svg" xmlns:xlink="http://www.w3.org/1999/xlink" x="0px" y="0px"
	 viewBox="0 0 3830.24 554.94" style="enable-background:new 0 0 3830.24 554.94;" xml:space="preserve">
<style type="text/css">
	.st0{fill:#E51010;}
	.st1{fill:#FDFDFD;}
</style>
<g>
	<path class="st0" d="M128.18,85.04c48.73,0.99,79.51,18.35,103.19,49.94c16.9,22.54,17.62,22.51,33.31-0.12
		c26.82-38.69,64.49-53.95,109.76-48.17c47.57,6.07,83.84,28.92,99.32,77.55c6.71,21.08,0.42,40.77-4.9,60.63
		c-11.28,42.11-37.35,75.78-65.43,107.22c-45.39,50.82-95.86,96.69-146.79,141.96c-5.95,5.29-10.12,5.1-15.93-0.06
		c-61.72-54.74-124.93-107.98-174.53-174.81c-23.53-31.7-40.83-66.64-45.61-105.9c-4.21-34.48,16.05-74.93,59.54-94.85
		C97.99,90.23,116.85,84.29,128.18,85.04z"/>
	<path class="st1" d="M2425.64,485.69c-23.7-1.65-47.94,2.4-70.85-6.88c-29.13-11.79-34.27-29.5-11.67-49.78
		c29.03-26.05,19.57-59.09,20.37-90.38c0.25-9.83-7.35-14.31-16.98-14.51c-5.97-0.13-12.02-0.81-17.9-0.1
		c-20.08,2.43-50.35-9.32-56.23,16.15c-6.22,26.99-11.4,58.97,12.8,84.79c22.55,24.08,18.16,42.02-13.45,51.91
		c-45.34,14.18-91.84,11.8-137.83,2.19c-12.76-2.67-26.05-8.16-29.49-23.02c-3.62-15.63,6.68-24.39,18.91-30.89
		c16.26-8.64,19-24.14,19.18-39.78c0.65-57.33,0.28-114.67,0.61-172c0.1-17.04-6.15-29.02-21.44-38
		c-24.41-14.34-20.54-32.45,1.56-43.03c51.45-24.64,105.98-28.34,159.93-9.47c28.16,9.85,31.93,31.46,7.82,47.68
		c-30.41,20.47-18.93,48.41-20.05,74.32c-0.44,10.14,9.6,13.07,17.88,14.2c9.4,1.29,19.12,1.83,28.55,0.96
		c15.7-1.45,39.67,6.79,44.13-11.84c5.45-22.76,10.24-49.65-10.2-71.05c-28.53-29.88-23.69-48.72,16.31-58.12
		c42.3-9.94,85.22-10.9,127.65,0.47c14.09,3.77,27.41,9.59,30.83,26.3c3.26,15.94-6.61,24.39-18.59,31.14
		c-14.91,8.4-16.27,22.71-16.41,37.22c-0.56,58.53-0.53,117.07-1.26,175.6c-0.21,16.83,5.53,28.54,19.16,39.53
		c21.49,17.32,18.43,33.3-6.01,46.1C2478.44,488.28,2451.64,483.81,2425.64,485.69z"/>
	<path class="st1" d="M3620.14,431.29c-16.43-7.25-21.17-19.95-23.68-36.6c-5.81-37.68-17.8-72.05-58.34-87.41
		c-18.01-6.82-13.92-16.15-0.57-24.76c33.3-21.46,42.12-52.82,36.17-89.99c-6.32-39.68-34.66-57.63-69.18-69.11
		c-44.49-14.78-90.06-4.45-127.52-5.88c-21.89,0-36.24-0.14-50.52,0.07c-28.27,0.36-57.05-7.75-84.68,5.09
		c-18.8,8.68-29.14,26.12-11.63,37.96c33.3,22.46,31.65,53.32,31.79,85.54c0.14,39.47-0.57,78.87,0.07,118.34
		c0.5,26.34-4.66,49.16-26.7,66.81c-21.74,17.51-15.21,36.02,7.32,43.63c51.89,17.51,105.56,15.5,158.09,1.65
		c21.24-5.53,26.84-26.48,10.05-37.82c-27.92-18.87-20.6-46.22-25.33-70.47c-2.51-12.92-3.44-31.29,12.99-36.46
		c19.16-6.1,32.29,7.03,38.39,23.97c7.68,21.24,12.2,43.56,18.87,65.16c19.02,61.86,113.82,92.72,165.13,52.96
		C3637.08,461.43,3650.21,444.5,3620.14,431.29z M3402.13,273.2c-30.21,1.72-15.29-22.75-22.17-35.38
		c12.34-20.88-11.63-60.42,30.57-61.43c30.36-0.72,30.21,27.92,30.36,51.1C3441.02,253.68,3430.54,271.55,3402.13,273.2z"/>
	<path class="st1" d="M1969.39,429.94c-9.62-7.32-13.35-15.21-15.21-26.48c-6.53-39.18-13.85-77.5-55.4-98.17
		c-20.74-10.33-2.01-18.01,5.6-25.26c51.6-49.01,37.25-134.55-30.07-153.86c-72.98-20.95-149.12-2.87-223.83-5.31
		c-5.09-0.14-11.27,4.23-15.5,8.11c-10.91,10.12-16.43,23.75-2.44,33.44c27.05,18.73,27.41,45.28,27.13,73.27
		c-0.43,46.57-0.22,93.22-0.07,139.87c0.07,21.03-4.38,39.4-20.52,55.04c-20.24,19.66-16.36,37.32,9.76,48.65
		c20.09,8.76,41.91,8.9,61.79,7.89c23.25,0.43,45.07,1.36,65.59-6.32c20.38-7.54,31.65-24.11,14.28-40.62
		c-23.25-22.17-21.82-48.73-23.47-75.64c-0.79-12.85-2.01-29.57,13.92-32.87c18.37-3.88,27.99,10.62,32.51,26.62
		c6.39,22.96,10.41,46.57,17.58,69.25c18.01,56.76,80.52,81.38,133.12,53.32C1990.28,466.97,1992.86,447.81,1969.39,429.94z
		 M1830.25,232.38c0.14,10.69-2.08,21.31-9.4,29.85c-8.47,9.83-19.59,13.49-31.93,10.26c-13.35-3.44-7.75-15.14-8.54-23.68
		c-0.57-7.03-0.07-14.21-0.07-24.11c3.8-16-9.26-47.94,21.96-47.51C1834.05,177.63,1829.96,209.2,1830.25,232.38z"/>
	<path class="st1" d="M1060.38,113.11c-97.74,0.22-175.17,80.73-175.89,182.99c-0.79,109.72,71.12,190.74,169.57,191.1
		c102.62,0.43,181.27-78.15,180.98-180.63C1234.69,199.66,1156.39,112.9,1060.38,113.11z M1129.05,375.62
		c-2.23,17.08-11.99,28.78-28.49,33.23c-15.5,4.16-28.85-2.58-37.46-15c-34.66-49.95-48.3-106.07-43.34-166.13
		c1.36-16.43,10.41-32.44,30.5-35.31c19.09-2.73,32.29,7.82,41.77,22.32c26.27,40.04,36.89,84.97,38.75,139.36
		C1130.63,356.6,1130.27,366.15,1129.05,375.62z"/>
	<path class="st1" d="M2969.04,431.37c-17.94-5.67-24.47-21.24-32.01-36.38c-34.52-69.54-68.75-139.22-104.7-207.97
		c-14.86-28.49-33.08-55.54-64.16-70.11c-38.32-17.87-85.04-0.36-87.34,37.68c-5.38,88.2-52.89,159.89-86.4,237.03
		c-8.61,19.73-19.88,37.82-43.92,43.99c-10.69,2.73-17.29,12.7-15.93,25.12c1.36,12.85,11.12,19.09,21.67,20.81
		c37.96,6.24,76.21,6.67,113.89-1.29c10.12-2.15,20.31-8.75,22.68-20.81c2.73-13.71-8.25-19.09-17.58-23.61
		c-9.4-4.52-18.08-9.26-15.14-20.74c2.44-9.62,10.41-17.51,20.45-17.73c32.22-0.65,64.51-0.65,96.66,1
		c8.61,0.43,18.66,6.1,20.45,17.37c1.51,9.76-3.8,14.78-12.77,18.51c-10.05,4.16-20.02,10.84-17.65,23.82
		c2.66,15.07,15.36,22.25,28.35,23.83c24.76,3.16,49.95,3.37,68.75,4.45c38.25-3.01,70.97,3.66,101.9-9.33
		c10.41-4.38,18.95-10.84,20.6-22.75C2988.7,440.98,2980.38,435.03,2969.04,431.37z M2766.81,319.92
		c-4.38,25.19-25.4,5.67-36.81,14.07c-11.41-8.11-37.68,10.62-34.09-16.58c2.8-21.31,5.74-48.58,32.8-57.63
		C2736.96,257.05,2769.18,306.57,2766.81,319.92z"/>
	<path class="st1" d="M1509.67,275.97c0-20.33-0.29-40.66,0.08-60.98c0.38-21.15-2.27-38.94-23.93-51.47
		c-22.63-13.09-16.79-31.69,3.38-40.73c33.83-15.15,69.99-15.49,104.47-0.98c22.43,9.43,24.21,27.51,5.5,41.19
		c-19.91,14.56-20.32,33.38-20.99,53.82c-1.73,52.5,4.02,105.21-3.81,157.52c-8.71,58.13-45.7,96.36-103.49,108.64
		c-27.28,5.8-54.81,6.15-82.11,3.23c-82.37-8.83-127.72-60.4-128.12-144.14c-0.16-33.48,0.04-66.96,0.01-100.45
		c-0.02-27.19,2.57-53.4-21.36-75.96c-15.15-14.28-9.95-34.15,12.8-41.85c45.48-15.37,91.76-15.97,137.14-0.81
		c24.31,8.13,29.03,31.44,8.61,46.63c-19.54,14.54-22.26,32.06-21.9,53.05c0.69,39.44-1.25,79.06,1.82,118.3
		c3.9,49.73,31.4,71.66,78.03,66.96c32.06-3.23,50.1-21.86,52.52-53.12c2.02-26.14,0.41-52.56,0.41-78.86
		C1509.05,275.97,1509.36,275.97,1509.67,275.97z"/>
	<path class="st1" d="M721.99,481.97c-24.04,2.45-48.07,1.06-70.73-6.91c-25.43-8.93-31.74-29.05-16.4-46.29
		c38.12-42.85,47.98-114.21,16.71-159.86c-26.54-38.74-48.86-82.65-94.76-104.64c-8.69-4.16-15.55-11.5-14.59-22.66
		c1.09-12.72,10.68-19.29,20.8-22.06c52.73-14.45,105.95-15.99,158.74-0.55c15.97,4.67,22.97,16.44,15.1,33.5
		c-2.48,5.38-6.13,10.88-6.44,16.47c-0.91,16.53,6.08,30.22,19.35,39.98c6.39,4.7,14.4,3.65,19.84-1.65
		c11.52-11.23,18.65-24.12,14.26-41.57c-9.75-38.78-1.88-52.03,36.79-55.49c24.59-2.2,49.79-4.52,74.39,4.41
		c12.99,4.71,19.83,11.2,19.93,25.5c0.09,13.12-7.33,18.45-17.76,23.6c-83.23,41.09-129.42,136.46-111.04,228.62
		c2.35,11.77,7.09,21.72,16.85,30.4c26.86,23.87,21.58,43.65-13.58,54.68c-6.8,2.13-13.93,4.03-20.98,4.33
		C752.99,482.41,737.48,481.97,721.99,481.97z"/>
	<path class="st1" d="M3100.55,485.8c-24.72-1.1-49.06,2.75-72.03-5.04c-29.89-10.13-34.45-28.52-10.72-48.57
		c18.27-15.43,19.06-35.35,19.6-54.91c1.35-48.91,0.87-97.88,0.3-146.81c-0.27-23.28-6.25-43.22-27.79-58.38
		c-22.76-16.02-20.26-35.3,6.24-44.71c53.89-19.13,109.82-23,165.02-6.03c31.99,9.84,34.83,30.14,7.95,50.2
		c-15.39,11.49-19.91,25.56-20.81,42.93c-3.04,58.47-2.29,116.92,0.01,175.4c0.61,15.49,4.41,27.89,19.82,34.78
		c11.45,5.11,20.76,12.85,19.01,27.13c-1.86,15.2-13.2,20.59-26.23,25.69C3154.34,487.85,3126.75,483.64,3100.55,485.8z"/>
</g>
</svg>
