<?xml version="1.0" encoding="utf-8"?>
<!-- Generator: Adobe Illustrator 26.0.1, SVG Export Plug-In . SVG Version: 6.00 Build 0)  -->
<svg version="1.1" id="Layer_1" xmlns="http://www.w3.org/2000/svg" xmlns:xlink="http://www.w3.org/1999/xlink" x="0px" y="0px"
	 viewBox="0 0 940 363" style="enable-background:new 0 0 940 363;" xml:space="preserve">
<style type="text/css">
	.st0{fill:#E51010;}
	.st1{fill:#FDFDFD;}
</style>
<g>
	<path class="st0" d="M108.01,16.58c40.97,0.83,66.85,15.43,86.76,41.99c14.21,18.95,14.82,18.93,28-0.1
		c22.55-32.53,54.22-45.36,92.29-40.5c39.99,5.1,70.49,24.31,83.5,65.2c5.64,17.73,0.35,34.28-4.12,50.98
		c-9.48,35.41-31.4,63.71-55.01,90.15c-38.17,42.73-80.6,81.3-123.42,119.36c-5,4.45-8.51,4.29-13.4-0.05
		c-51.9-46.03-105.04-90.79-146.74-146.98c-19.78-26.65-34.33-56.03-38.35-89.04C13.97,78.6,31,44.59,67.57,27.84
		C82.63,20.94,98.48,15.95,108.01,16.58z"/>
	<path class="st1" d="M508.77,325.77c-8-0.56-16.18,0.81-23.91-2.32c-9.83-3.98-11.57-9.96-3.94-16.8c9.8-8.79,6.6-19.94,6.88-30.5
		c0.09-3.32-2.48-4.83-5.73-4.9c-2.02-0.04-4.06-0.27-6.04-0.03c-6.78,0.82-16.99-3.14-18.98,5.45c-2.1,9.11-3.85,19.9,4.32,28.62
		c7.61,8.13,6.13,14.18-4.54,17.52c-15.3,4.79-31,3.98-46.52,0.74c-4.31-0.9-8.79-2.75-9.95-7.77c-1.22-5.27,2.25-8.23,6.38-10.43
		c5.49-2.92,6.41-8.15,6.47-13.42c0.22-19.35,0.1-38.7,0.21-58.05c0.03-5.75-2.07-9.79-7.23-12.82c-8.24-4.84-6.93-10.95,0.53-14.52
		c17.37-8.32,35.77-9.56,53.98-3.19c9.5,3.32,10.78,10.62,2.64,16.09c-10.26,6.91-6.39,16.34-6.77,25.08
		c-0.15,3.42,3.24,4.41,6.04,4.79c3.17,0.44,6.45,0.62,9.63,0.32c5.3-0.49,13.39,2.29,14.89-4c1.84-7.68,3.45-16.76-3.44-23.98
		c-9.63-10.09-8-16.44,5.5-19.62c14.28-3.36,28.76-3.68,43.08,0.16c4.76,1.27,9.25,3.24,10.4,8.88c1.1,5.38-2.23,8.23-6.28,10.51
		c-5.03,2.83-5.49,7.67-5.54,12.56c-0.19,19.76-0.18,39.51-0.42,59.27c-0.07,5.68,1.87,9.63,6.47,13.34
		c7.25,5.85,6.22,11.24-2.03,15.56C526.59,326.65,517.55,325.14,508.77,325.77z"/>
	<path class="st1" d="M911.92,307.42c-5.55-2.45-7.14-6.73-7.99-12.35c-1.96-12.72-6.01-24.32-19.69-29.5
		c-6.08-2.3-4.7-5.45-0.19-8.36c11.24-7.24,14.22-17.83,12.21-30.37c-2.13-13.39-11.7-19.45-23.35-23.32
		c-15.02-4.99-30.4-1.5-43.04-1.99c-7.39,0-12.23-0.05-17.05,0.02c-9.54,0.12-19.25-2.62-28.58,1.72
		c-6.35,2.93-9.83,8.82-3.92,12.81c11.24,7.58,10.68,18,10.73,28.87c0.05,13.32-0.19,26.62,0.02,39.94
		c0.17,8.89-1.57,16.59-9.01,22.55c-7.34,5.91-5.13,12.16,2.47,14.73c17.51,5.91,35.63,5.23,53.36,0.56
		c7.17-1.86,9.06-8.94,3.39-12.76c-9.42-6.37-6.95-15.6-8.55-23.78c-0.85-4.36-1.16-10.56,4.38-12.3c6.47-2.06,10.9,2.37,12.96,8.09
		c2.59,7.17,4.12,14.7,6.37,21.99c6.42,20.88,38.41,31.29,55.73,17.87C917.64,317.59,922.07,311.87,911.92,307.42z M838.34,254.06
		c-10.2,0.58-5.16-7.68-7.48-11.94c4.17-7.05-3.92-20.39,10.32-20.73c10.25-0.24,10.2,9.42,10.25,17.24
		C851.47,247.47,847.93,253.5,838.34,254.06z"/>
	<path class="st1" d="M892.95,159.97c-3.25-2.47-4.5-5.13-5.13-8.94c-2.2-13.22-4.67-26.16-18.7-33.13c-7-3.49-0.68-6.08,1.89-8.53
		c17.41-16.54,12.57-45.41-10.15-51.93c-24.63-7.07-50.33-0.97-75.54-1.79c-1.72-0.05-3.8,1.43-5.23,2.74
		c-3.68,3.42-5.55,8.02-0.82,11.29c9.13,6.32,9.25,15.28,9.16,24.73c-0.15,15.72-0.07,31.46-0.02,47.2
		c0.02,7.1-1.48,13.3-6.93,18.58c-6.83,6.64-5.52,12.59,3.29,16.42c6.78,2.95,14.14,3,20.85,2.66c7.85,0.15,15.21,0.46,22.14-2.13
		c6.88-2.54,10.68-8.14,4.82-13.71c-7.85-7.48-7.36-16.45-7.92-25.53c-0.27-4.34-0.68-9.98,4.7-11.09c6.2-1.31,9.45,3.58,10.97,8.99
		c2.16,7.75,3.51,15.72,5.93,23.37c6.08,19.16,27.18,27.47,44.93,18C900,172.46,900.87,166,892.95,159.97z M845.99,93.29
		c0.05,3.61-0.7,7.19-3.17,10.08c-2.86,3.32-6.61,4.55-10.78,3.46c-4.51-1.16-2.62-5.11-2.88-7.99c-0.19-2.37-0.02-4.8-0.02-8.14
		c1.28-5.4-3.12-16.18,7.41-16.03C847.28,74.81,845.9,85.46,845.99,93.29z"/>
	<path class="st1" d="M586.16,53.03c-32.99,0.07-59.12,27.25-59.36,61.76c-0.27,37.03,24,64.38,57.23,64.5
		c34.63,0.15,61.18-26.38,61.08-60.96C644.99,82.24,618.57,52.96,586.16,53.03z M609.34,141.63c-0.75,5.76-4.05,9.71-9.62,11.21
		c-5.23,1.4-9.74-0.87-12.64-5.06c-11.7-16.86-16.3-35.8-14.63-56.07c0.46-5.55,3.51-10.95,10.29-11.92
		c6.44-0.92,10.9,2.64,14.1,7.53c8.86,13.51,12.45,28.68,13.08,47.04C609.87,135.21,609.75,138.43,609.34,141.63z"/>
	<path class="st1" d="M692.17,307.44c-6.05-1.91-8.26-7.17-10.8-12.28c-11.65-23.47-23.2-46.99-35.34-70.19
		c-5.01-9.62-11.17-18.75-21.65-23.66c-12.93-6.03-28.7-0.12-29.48,12.72c-1.82,29.77-17.85,53.96-29.16,80
		c-2.91,6.66-6.71,12.76-14.82,14.85c-3.61,0.92-5.84,4.29-5.38,8.48c0.46,4.34,3.75,6.44,7.31,7.02
		c12.81,2.11,25.72,2.25,38.44-0.44c3.42-0.73,6.85-2.95,7.65-7.02c0.92-4.63-2.79-6.44-5.93-7.97c-3.17-1.53-6.1-3.12-5.11-7
		c0.82-3.25,3.51-5.91,6.9-5.98c10.87-0.22,21.77-0.22,32.62,0.34c2.91,0.15,6.3,2.06,6.9,5.86c0.51,3.29-1.28,4.99-4.31,6.25
		c-3.39,1.4-6.76,3.66-5.96,8.04c0.9,5.09,5.18,7.51,9.57,8.04c8.36,1.07,16.86,1.14,23.2,1.5c12.91-1.02,23.95,1.24,34.39-3.15
		c3.51-1.48,6.39-3.66,6.95-7.68C698.81,310.69,696,308.68,692.17,307.44z M623.92,269.83c-1.48,8.5-8.57,1.91-12.42,4.75
		c-3.85-2.74-12.72,3.58-11.5-5.59c0.94-7.19,1.94-16.4,11.07-19.45C613.84,248.61,624.72,265.32,623.92,269.83z"/>
	<path class="st1" d="M737.8,108c0-6.86-0.1-13.72,0.03-20.58c0.13-7.14-0.77-13.14-8.08-17.37c-7.64-4.42-5.67-10.7,1.14-13.74
		c11.42-5.11,23.62-5.23,35.26-0.33c7.57,3.18,8.17,9.28,1.86,13.9c-6.72,4.91-6.86,11.27-7.08,18.17
		c-0.58,17.72,1.36,35.51-1.29,53.16c-2.94,19.62-15.42,32.52-34.93,36.67c-9.21,1.96-18.5,2.08-27.71,1.09
		c-27.8-2.98-43.11-20.38-43.24-48.65c-0.05-11.3,0.01-22.6,0-33.9c-0.01-9.18,0.87-18.02-7.21-25.64
		c-5.11-4.82-3.36-11.53,4.32-14.12c15.35-5.19,30.97-5.39,46.29-0.27c8.21,2.74,9.8,10.61,2.91,15.74
		c-6.59,4.91-7.51,10.82-7.39,17.9c0.23,13.31-0.42,26.68,0.61,39.93c1.32,16.79,10.6,24.18,26.34,22.6
		c10.82-1.09,16.91-7.38,17.73-17.93c0.68-8.82,0.14-17.74,0.14-26.61C737.59,108,737.69,108,737.8,108z"/>
	<path class="st1" d="M471.95,178.87c-8.11,0.83-16.22,0.36-23.87-2.33c-8.58-3.01-10.71-9.81-5.54-15.62
		c12.87-14.46,16.19-38.55,5.64-53.95c-8.96-13.08-16.49-27.9-31.98-35.32c-2.93-1.4-5.25-3.88-4.92-7.65
		c0.37-4.29,3.6-6.51,7.02-7.45c17.8-4.88,35.76-5.4,53.57-0.18c5.39,1.58,7.75,5.55,5.09,11.31c-0.84,1.81-2.07,3.67-2.17,5.56
		c-0.31,5.58,2.05,10.2,6.53,13.49c2.16,1.59,4.86,1.23,6.69-0.56c3.89-3.79,6.3-8.14,4.81-14.03
		c-3.29-13.09-0.64-17.56,12.42-18.73c8.3-0.74,16.8-1.52,25.11,1.49c4.38,1.59,6.69,3.78,6.73,8.61c0.03,4.43-2.47,6.23-5.99,7.97
		c-28.09,13.87-43.68,46.05-37.47,77.16c0.79,3.97,2.39,7.33,5.69,10.26c9.07,8.06,7.28,14.73-4.58,18.45
		c-2.29,0.72-4.7,1.36-7.08,1.46C482.42,179.02,477.18,178.87,471.95,178.87z"/>
	<path class="st1" d="M736.56,325.81c-8.34-0.37-16.56,0.93-24.31-1.7c-10.09-3.42-11.63-9.63-3.62-16.39
		c6.17-5.21,6.43-11.93,6.61-18.53c0.46-16.51,0.29-33.03,0.1-49.55c-0.09-7.86-2.11-14.59-9.38-19.7
		c-7.68-5.41-6.84-11.92,2.1-15.09c18.19-6.46,37.06-7.76,55.69-2.04c10.8,3.32,11.76,10.17,2.68,16.94
		c-5.2,3.88-6.72,8.63-7.02,14.49c-1.03,19.73-0.77,39.46,0,59.2c0.21,5.23,1.49,9.41,6.69,11.74c3.86,1.72,7.01,4.34,6.41,9.16
		c-0.63,5.13-4.45,6.95-8.85,8.67C754.71,326.51,745.4,325.09,736.56,325.81z"/>
</g>
</svg>
