<svg xmlns="http://www.w3.org/2000/svg" viewBox="0 0 371.99 136.41"><defs><style>.cls-1{fill:#e51010;}.cls-2{fill:#fdfdfd;}</style></defs><title>LoveYourHair</title><g id="Layer_2" data-name="Layer 2"><g id="Layer_1-2" data-name="Layer 1"><path class="cls-1" d="M37.55,0c16.92.34,27.6,6.37,35.82,17.34,5.87,7.83,6.12,7.81,11.56,0C94.24,3.88,107.32-1.41,123,.59c16.51,2.11,29.1,10,34.48,26.92,2.33,7.32.14,14.15-1.7,21-3.91,14.62-13,26.31-22.71,37.22-15.76,17.64-33.28,33.57-51,49.28-2.07,1.84-3.51,1.77-5.53,0C55.18,116,33.24,97.56,16,74.36,7.86,63.36,1.85,51.23.19,37.6c-1.46-12,5.57-26,20.67-32.93C27.07,1.82,33.62-.24,37.55,0Z"/><path class="cls-2" d="M203,127.68c-3.3-.23-6.68.33-9.87-1-4.06-1.64-4.78-4.11-1.63-6.94,4-3.63,2.73-8.23,2.84-12.59,0-1.37-1-2-2.37-2a17.82,17.82,0,0,0-2.49,0c-2.8.34-7-1.3-7.84,2.25-.87,3.76-1.59,8.22,1.78,11.82,3.14,3.36,2.53,5.86-1.87,7.23-6.32,2-12.8,1.64-19.21.3-1.78-.37-3.63-1.14-4.11-3.21s.93-3.4,2.64-4.3c2.27-1.2,2.65-3.36,2.67-5.54.09-8,0-16,.09-24a5.54,5.54,0,0,0-3-5.29c-3.4-2-2.86-4.52.22-6a28.49,28.49,0,0,1,22.29-1.32c3.92,1.37,4.45,4.38,1.09,6.64-4.24,2.85-2.64,6.75-2.79,10.36-.06,1.41,1.34,1.82,2.49,2a17.56,17.56,0,0,0,4,.13c2.19-.2,5.53.95,6.15-1.65.76-3.17,1.43-6.92-1.42-9.9-4-4.16-3.3-6.79,2.27-8.1a36.07,36.07,0,0,1,17.79.06c2,.53,3.82,1.34,4.3,3.66s-.92,3.4-2.59,4.34c-2.08,1.17-2.27,3.17-2.29,5.19-.08,8.16-.07,16.31-.18,24.47a6.36,6.36,0,0,0,2.67,5.51c3,2.41,2.57,4.64-.84,6.42S206.65,127.42,203,127.68Z"/><path class="cls-2" d="M369.47,120.11c-2.29-1-2.95-2.78-3.3-5.1-.81-5.25-2.48-10-8.13-12.18-2.51-1-1.94-2.25-.08-3.45,4.64-3,5.87-7.36,5-12.54-.88-5.53-4.83-8-9.64-9.63-6.2-2.06-12.55-.62-17.77-.82-3,0-5,0-7,0-3.94,0-7.95-1.08-11.8.71-2.62,1.21-4.06,3.64-1.62,5.29,4.64,3.13,4.41,7.43,4.43,11.92,0,5.5-.08,11,0,16.49.07,3.67-.65,6.85-3.72,9.31s-2.12,5,1,6.08c7.23,2.44,14.71,2.16,22,.23,3-.77,3.74-3.69,1.4-5.27-3.89-2.63-2.87-6.44-3.53-9.82-.35-1.8-.48-4.36,1.81-5.08,2.67-.85,4.5,1,5.35,3.34,1.07,3,1.7,6.07,2.63,9.08,2.65,8.62,15.86,12.92,23,7.38C371.83,124.31,373.66,121.95,369.47,120.11Zm-30.38-22c-4.21.24-2.13-3.17-3.09-4.93,1.72-2.91-1.62-8.42,4.26-8.56,4.23-.1,4.21,3.89,4.23,7.12C344.51,95.36,343.05,97.85,339.09,98.08Z"/><path class="cls-2" d="M361.64,59.23a5.21,5.21,0,0,1-2.12-3.69c-.91-5.46-1.93-10.8-7.72-13.68-2.89-1.44-.28-2.51.78-3.52,7.19-6.83,5.19-18.75-4.19-21.44-10.17-2.92-20.78-.4-31.19-.74A3.69,3.69,0,0,0,315,17.29c-1.52,1.41-2.29,3.31-.34,4.66,3.77,2.61,3.82,6.31,3.78,10.21-.06,6.49,0,13,0,19.49,0,2.93-.61,5.49-2.86,7.67-2.82,2.74-2.28,5.2,1.36,6.78a18.92,18.92,0,0,0,8.61,1.1c3.24.06,6.28.19,9.14-.88s4.41-3.36,2-5.66c-3.24-3.09-3-6.79-3.27-10.54-.11-1.79-.28-4.12,1.94-4.58,2.56-.54,3.9,1.48,4.53,3.71.89,3.2,1.45,6.49,2.45,9.65a12.82,12.82,0,0,0,18.55,7.43C364.55,64.39,364.91,61.72,361.64,59.23ZM342.25,31.7a6.06,6.06,0,0,1-1.31,4.16,4.19,4.19,0,0,1-4.45,1.43c-1.86-.48-1.08-2.11-1.19-3.3-.08-1,0-2,0-3.36.53-2.23-1.29-6.68,3.06-6.62S342.21,28.47,342.25,31.7Z"/><path class="cls-2" d="M235,15.08c-13.62,0-24.41,11.25-24.51,25.5-.11,15.29,9.91,26.58,23.63,26.63A24.67,24.67,0,0,0,259.31,42C259.26,27.14,248.35,15,235,15.08Zm9.57,36.58a5.17,5.17,0,0,1-4,4.63,4.68,4.68,0,0,1-5.22-2.09,34.56,34.56,0,0,1-6-23.15c.19-2.29,1.45-4.52,4.25-4.92s4.5,1.09,5.82,3.11c3.66,5.58,5.14,11.84,5.4,19.42C244.76,49,244.71,50.34,244.54,51.66Z"/><path class="cls-2" d="M278.74,120.12c-2.5-.79-3.41-3-4.46-5.07-4.81-9.69-9.58-19.4-14.59-29-2.07-4-4.61-7.74-8.94-9.77-5.34-2.49-11.85,0-12.17,5.25-.75,12.29-7.37,22.28-12,33-1.2,2.75-2.77,5.27-6.12,6.13a3.07,3.07,0,0,0-2.22,3.5,3.29,3.29,0,0,0,3,2.9,42.77,42.77,0,0,0,15.87-.18,3.84,3.84,0,0,0,3.16-2.9c.38-1.91-1.15-2.66-2.45-3.29s-2.52-1.29-2.11-2.89a3.13,3.13,0,0,1,2.85-2.47c4.49-.09,9-.09,13.47.14a3,3,0,0,1,2.85,2.42c.21,1.36-.53,2.06-1.78,2.58-1.4.58-2.79,1.51-2.46,3.32a4.19,4.19,0,0,0,4,3.32c3.45.44,7,.47,9.58.62,5.33-.42,9.89.51,14.2-1.3a4.09,4.09,0,0,0,2.87-3.17C281.48,121.46,280.32,120.63,278.74,120.12Zm-28.18-15.53c-.61,3.51-3.54.79-5.13,2-1.59-1.13-5.25,1.48-4.75-2.31.39-3,.8-6.77,4.57-8C246.4,95.83,250.89,102.73,250.56,104.59Z"/><path class="cls-2" d="M297.58,37.77c0-2.83,0-5.67,0-8.5s-.32-5.43-3.33-7.17-2.34-4.42.47-5.68a17.87,17.87,0,0,1,14.56-.14c3.13,1.31,3.37,3.83.77,5.74-2.77,2-2.83,4.65-2.92,7.5-.24,7.32.56,14.66-.53,22-1.21,8.1-6.37,13.43-14.42,15.14a36.22,36.22,0,0,1-11.44.45c-11.48-1.23-17.8-8.42-17.85-20.09,0-4.67,0-9.33,0-14,0-3.79.36-7.44-3-10.59-2.11-2-1.39-4.76,1.78-5.83a29.4,29.4,0,0,1,19.11-.11c3.39,1.13,4,4.38,1.2,6.5s-3.1,4.47-3.05,7.39c.1,5.5-.17,11,.25,16.48.54,6.93,4.38,10,10.87,9.33,4.47-.45,7-3,7.32-7.4.28-3.64.06-7.32.06-11Z"/><path class="cls-2" d="M187.82,67a22.63,22.63,0,0,1-9.86-1c-3.54-1.24-4.42-4-2.29-6.45,5.31-6,6.69-15.92,2.33-22.28-3.7-5.4-6.81-11.52-13.2-14.58a3.15,3.15,0,0,1-2-3.16,3.54,3.54,0,0,1,2.9-3.07,39.94,39.94,0,0,1,22.12-.08c2.23.65,3.2,2.29,2.1,4.67a7,7,0,0,0-.9,2.3,6.24,6.24,0,0,0,2.7,5.57,2.09,2.09,0,0,0,2.76-.23c1.6-1.57,2.6-3.36,2-5.79-1.36-5.4-.26-7.25,5.13-7.73,3.43-.31,6.94-.63,10.37.61,1.81.66,2.76,1.56,2.78,3.55,0,1.83-1,2.57-2.47,3.29a29.36,29.36,0,0,0-15.47,31.86,7.23,7.23,0,0,0,2.35,4.24c3.74,3.33,3,6.08-1.89,7.62a11.58,11.58,0,0,1-2.92.6C192.14,67.09,190,67,187.82,67Z"/><path class="cls-2" d="M297.07,127.7c-3.44-.15-6.84.38-10-.7-4.17-1.41-4.8-4-1.49-6.77,2.55-2.15,2.66-4.93,2.73-7.65.19-6.81.12-13.64,0-20.46,0-3.24-.87-6-3.87-8.13-3.17-2.23-2.82-4.92.87-6.23a36,36,0,0,1,23-.84c4.46,1.37,4.85,4.2,1.11,7a7.18,7.18,0,0,0-2.9,6c-.42,8.15-.32,16.29,0,24.44.08,2.16.61,3.89,2.76,4.85,1.59.71,2.89,1.79,2.65,3.78s-1.84,2.87-3.65,3.58C304.57,128,300.72,127.4,297.07,127.7Z"/></g></g></svg>